HIERARCHY
ROOT joint_Root
{
	OFFSET 0.0 0.0 0.0
	CHANNELS 6 Xposition Yposition Zposition Zrotation Xrotation Yrotation 
	JOINT Hips
	{
		OFFSET 4.5925 91.4895 -427.239
		CHANNELS 6 Xposition Yposition Zposition Zrotation Xrotation Yrotation 
		JOINT Spine
		{
			OFFSET 15.7357 0.0 0.0
			CHANNELS 6 Xposition Yposition Zposition Zrotation Xrotation Yrotation 
			JOINT Chest
			{
				OFFSET 8.98455 -0.406207 0.0
				CHANNELS 6 Xposition Yposition Zposition Zrotation Xrotation Yrotation 
				JOINT Neck
				{
					OFFSET 16.3773 0.0 0.0
					CHANNELS 6 Xposition Yposition Zposition Zrotation Xrotation Yrotation 
					JOINT Head
					{
						OFFSET 6.45672 0.0 0.0
						CHANNELS 6 Xposition Yposition Zposition Zrotation Xrotation Yrotation 
						End Site
						{
							OFFSET 0.0 0.0 0.0
						}
					}
				}
				JOINT Shoulder_L
				{
					OFFSET 12.9942 -0.242716 4.98039
					CHANNELS 6 Xposition Yposition Zposition Zrotation Xrotation Yrotation 
					JOINT UpperArm_L
					{
						OFFSET 5.34809 0.0 0.0
						CHANNELS 6 Xposition Yposition Zposition Zrotation Xrotation Yrotation 
						JOINT LowerArm_L
						{
							OFFSET 24.3286 1.87007e-05 0.0
							CHANNELS 6 Xposition Yposition Zposition Zrotation Xrotation Yrotation 
							JOINT Hand_L
							{
								OFFSET 22.2916 0.0 0.0
								CHANNELS 6 Xposition Yposition Zposition Zrotation Xrotation Yrotation 
								End Site
								{
									OFFSET 0.0 0.0 0.0
								}
							}
						}
					}
				}
				JOINT Shoulder_R
				{
					OFFSET 12.9945 -0.242716 -4.98039
					CHANNELS 6 Xposition Yposition Zposition Zrotation Xrotation Yrotation 
					JOINT UpperArm_R
					{
						OFFSET -5.34813 0.0 0.0
						CHANNELS 6 Xposition Yposition Zposition Zrotation Xrotation Yrotation 
						JOINT LowerArm_R
						{
							OFFSET -24.3289 0.000322201 0.0
							CHANNELS 6 Xposition Yposition Zposition Zrotation Xrotation Yrotation 
							JOINT Hand_R
							{
								OFFSET -22.2915 -0.000108084 0.0
								CHANNELS 6 Xposition Yposition Zposition Zrotation Xrotation Yrotation 
								End Site
								{
									OFFSET 0.0 0.0 0.0
								}
							}
						}
					}
				}
			}
		}
		JOINT UpperLeg_L
		{
			OFFSET -2.19248 -6.46944 0.0
			CHANNELS 6 Xposition Yposition Zposition Zrotation Xrotation Yrotation 
			JOINT LowerLeg_L
			{
				OFFSET 39.0811 0.0 -1.23785e-05
				CHANNELS 6 Xposition Yposition Zposition Zrotation Xrotation Yrotation 
				JOINT Foot_L
				{
					OFFSET 40.9854 0.0 -1.26872e-05
					CHANNELS 6 Xposition Yposition Zposition Zrotation Xrotation Yrotation 
					JOINT Toes_L
					{
						OFFSET 11.7543 0.0 0.0
						CHANNELS 6 Xposition Yposition Zposition Zrotation Xrotation Yrotation 
						End Site
						{
							OFFSET 0.0 0.0 0.0
						}
					}
				}
			}
		}
		JOINT UpperLeg_R
		{
			OFFSET -2.19251 6.46944 0.0
			CHANNELS 6 Xposition Yposition Zposition Zrotation Xrotation Yrotation 
			JOINT LowerLeg_R
			{
				OFFSET -39.0811 -0.00228153 -0.0401928
				CHANNELS 6 Xposition Yposition Zposition Zrotation Xrotation Yrotation 
				JOINT Foot_R
				{
					OFFSET -40.9854 0.0 0.0
					CHANNELS 6 Xposition Yposition Zposition Zrotation Xrotation Yrotation 
					JOINT Toes_R
					{
						OFFSET -11.7543 0.0 0.0
						CHANNELS 6 Xposition Yposition Zposition Zrotation Xrotation Yrotation 
						End Site
						{
							OFFSET 0.0 0.0 0.0
						}
					}
				}
			}
		}
	}
}
MOTION
Frames:	6
Frame Time:	0.0333333
0.000000 0.000000 0.000000 0.000000 0.000000 -0.000000 -1.444870 90.533300 -5.350210 89.858400 -2.800450 11.938000 15.735700 0.000005 -0.000001 89.314900 76.000600 -88.290200 8.984550 -0.406207 -0.000000 20.233800 -0.216221 2.094560 16.377300 -0.000001 -0.000001 8.074370 -4.013160 2.500850 6.456720 -0.000001 -0.000000 -6.063280 -4.105850 5.542370 12.994200 -0.242716 4.980390 -89.042100 -3.072280 -72.673500 5.348090 -0.000007 -0.000001 -80.099000 -29.435000 -85.012300 24.328600 0.000019 0.000005 42.773800 -7.814000 -98.360100 22.291600 -0.000001 0.000005 17.482000 4.935740 8.657030 12.994500 -0.242716 -4.980390 89.144200 9.357400 -84.751100 -5.348130 -0.000001 -0.000004 -53.765600 33.041500 -26.210600 -24.328900 0.000322 -0.000009 1.997460 5.003800 -21.804800 -22.291500 -0.000108 -0.000004 16.962700 5.394200 -2.749930 -2.192480 -6.469440 -0.000000 -174.580000 -10.603200 -2.887800 39.081100 -0.000007 -0.000012 -0.174606 0.267842 33.100600 40.985400 -0.000006 -0.000013 -0.098374 6.151240 -68.087400 11.754300 -0.000000 0.000003 -0.000057 -0.000634 -16.602100 -2.192510 6.469440 -0.000001 174.928000 19.492000 177.971000 -39.081100 -0.002282 -0.040193 -0.175683 0.273428 33.207700 -40.985400 0.000008 0.000006 4.303720 12.535500 -69.252100 -11.754300 -0.000006 -0.000006 -0.003625 -0.047477 -18.504200
0.000000 0.000000 0.000000 0.000000 0.000000 -0.000000 -1.445720 90.533400 -5.342650 89.851800 -2.817190 11.955600 15.735700 0.000005 -0.000001 89.352500 76.016600 -88.331600 8.984550 -0.406207 -0.000000 20.201700 -0.198656 2.083690 16.377300 -0.000001 -0.000001 8.096380 -3.988290 2.506250 6.456720 -0.000001 -0.000000 -6.050810 -4.125590 5.497430 12.994200 -0.242716 4.980390 -89.043300 -3.070630 -72.685600 5.348090 -0.000007 -0.000001 -80.003700 -29.426700 -84.857900 24.328600 0.000019 0.000005 42.638200 -7.886650 -98.475800 22.291600 -0.000001 0.000005 17.575800 4.937420 8.622870 12.994500 -0.242716 -4.980390 89.155900 9.324970 -84.804700 -5.348130 -0.000001 -0.000004 -53.823300 32.999400 -26.181800 -24.328900 0.000322 -0.000009 2.007010 5.044640 -21.739000 -22.291500 -0.000108 -0.000004 16.957400 5.394320 -2.753910 -2.192480 -6.469440 -0.000000 -174.563000 -10.631000 -2.857440 39.081100 -0.000007 -0.000012 -0.176186 0.270255 33.101600 40.985400 -0.000006 -0.000013 -0.096016 6.153230 -68.097900 11.754300 -0.000000 0.000003 -0.000061 -0.000675 -16.603700 -2.192510 6.469440 -0.000001 174.916000 19.544700 177.997000 -39.081100 -0.002282 -0.040193 -0.175690 0.273490 33.202900 -40.985400 0.000008 0.000006 4.325540 12.594200 -69.255700 -11.754300 -0.000006 -0.000006 -0.003580 -0.046998 -18.484700
0.000000 0.000000 0.000000 0.000000 0.000000 -0.000000 -1.437220 90.534100 -5.337590 89.834900 -2.832240 11.943900 15.735700 0.000005 -0.000001 89.407100 76.046200 -88.382000 8.984550 -0.406207 -0.000000 20.142500 -0.172086 2.087410 16.377300 -0.000001 -0.000001 8.142800 -3.978120 2.524900 6.456720 -0.000001 -0.000000 -6.071320 -4.144230 5.436950 12.994200 -0.242716 4.980390 -89.049800 -3.055650 -72.716900 5.348090 -0.000007 -0.000001 -79.878500 -29.394100 -84.598200 24.328600 0.000019 0.000005 42.535200 -7.984660 -98.609500 22.291600 -0.000001 0.000005 17.471900 4.940980 8.549960 12.994500 -0.242716 -4.980390 89.164900 9.308650 -84.850800 -5.348130 -0.000001 -0.000004 -53.882300 32.912200 -26.121200 -24.328900 0.000322 -0.000009 2.049400 5.162320 -21.697800 -22.291500 -0.000108 -0.000004 16.938200 5.393220 -2.718360 -2.192480 -6.469440 -0.000000 -174.550000 -10.615700 -2.862590 39.081100 -0.000007 -0.000012 -0.175191 0.268685 33.105900 40.985400 -0.000006 -0.000013 -0.099867 6.142090 -68.108800 11.754300 -0.000000 0.000003 -0.000060 -0.000661 -16.603200 -2.192510 6.469440 -0.000001 174.933000 19.522100 177.996000 -39.081100 -0.002282 -0.040193 -0.175780 0.273776 33.188600 -40.985400 0.000008 0.000006 4.315910 12.598400 -69.250600 -11.754300 -0.000006 -0.000006 -0.003507 -0.046215 -18.452800
0.000000 0.000000 0.000000 0.000000 0.000000 -0.000000 -1.420940 90.535300 -5.335700 89.839500 -2.832710 11.920200 15.735700 0.000005 -0.000001 89.390600 76.068500 -88.380200 8.984550 -0.406207 -0.000000 20.098000 -0.181505 2.059220 16.377300 -0.000001 -0.000001 8.161350 -3.975780 2.553040 6.456720 -0.000001 -0.000000 -6.084490 -4.147560 5.447860 12.994200 -0.242716 4.980390 -89.046300 -3.065410 -72.709600 5.348090 -0.000007 -0.000001 -79.750500 -29.357900 -84.361500 24.328600 0.000019 0.000005 42.377500 -8.021160 -98.695200 22.291600 -0.000001 0.000005 17.322900 4.946220 8.442780 12.994500 -0.242716 -4.980390 89.180000 9.282860 -84.929400 -5.348130 -0.000001 -0.000004 -53.963000 32.811100 -26.098900 -24.328900 0.000322 -0.000009 2.026450 5.114390 -21.659300 -22.291500 -0.000108 -0.000004 16.929400 5.393440 -2.725620 -2.192480 -6.469440 -0.000000 -174.570000 -10.650400 -2.887380 39.081100 -0.000007 -0.000012 -0.174217 0.267204 33.104700 40.985400 -0.000006 -0.000013 -0.074771 6.164340 -68.108900 11.754300 -0.000000 0.000003 -0.000059 -0.000650 -16.602700 -2.192510 6.469440 -0.000001 174.933000 19.530900 177.966000 -39.081100 -0.002282 -0.040193 -0.171960 0.267945 33.187800 -40.985400 0.000008 0.000006 4.306080 12.588500 -69.242500 -11.754300 -0.000006 -0.000006 -0.003497 -0.046102 -18.448200
0.000000 0.000000 0.000000 0.000000 0.000000 -0.000000 -1.404480 90.535800 -5.336340 89.850300 -2.816000 11.910100 15.735700 0.000005 -0.000001 89.387900 76.095700 -88.391200 8.984550 -0.406207 -0.000000 20.043600 -0.184153 2.032190 16.377300 -0.000001 -0.000001 8.214890 -3.944000 2.544800 6.456720 -0.000001 -0.000000 -6.094030 -4.171830 5.488690 12.994200 -0.242716 4.980390 -89.041900 -3.088470 -72.755600 5.348090 -0.000007 -0.000001 -79.619800 -29.363600 -84.142600 24.328600 0.000019 0.000005 42.283200 -8.037210 -98.740600 22.291600 -0.000001 0.000005 17.050600 4.945120 8.465420 12.994500 -0.242716 -4.980390 89.187000 9.237380 -84.948100 -5.348130 -0.000001 -0.000004 -53.974200 32.849700 -26.126400 -24.328900 0.000322 -0.000009 2.012610 5.087730 -21.627000 -22.291500 -0.000108 -0.000004 16.921900 5.394620 -2.763600 -2.192480 -6.469440 -0.000000 -174.589000 -10.668000 -2.894250 39.081100 -0.000007 -0.000012 -0.174115 0.267104 33.099000 40.985400 -0.000006 -0.000013 -0.055314 6.195440 -68.109100 11.754300 -0.000000 0.000003 -0.000062 -0.000681 -16.603900 -2.192510 6.469440 -0.000001 174.908000 19.495700 177.958000 -39.081100 -0.002282 -0.040193 -0.177617 0.276577 33.189300 -40.985400 0.000008 0.000006 4.276840 12.568600 -69.240300 -11.754300 -0.000006 -0.000006 -0.003760 -0.048918 -18.562800
0.000000 0.000000 0.000000 0.000000 0.000000 -0.000000 -1.386520 90.533100 -5.338090 89.863300 -2.809740 11.914200 15.735700 0.000005 -0.000001 89.369900 76.112300 -88.396400 8.984550 -0.406207 -0.000000 20.010100 -0.195111 1.987600 16.377300 -0.000001 -0.000001 8.283530 -3.945990 2.552610 6.456720 -0.000001 -0.000000 -6.131050 -4.206870 5.539270 12.994200 -0.242716 4.980390 -89.043700 -3.079360 -72.738300 5.348090 -0.000007 -0.000001 -79.488400 -29.332300 -84.036100 24.328600 0.000019 0.000005 42.377400 -7.979990 -98.651600 22.291600 -0.000001 0.000005 16.904300 4.943480 8.498970 12.994500 -0.242716 -4.980390 89.191600 9.219500 -84.967100 -5.348130 -0.000001 -0.000004 -53.959300 32.904900 -26.164600 -24.328900 0.000322 -0.000009 1.992920 5.029690 -21.658600 -22.291500 -0.000108 -0.000004 16.961700 5.394480 -2.758920 -2.192480 -6.469440 -0.000000 -174.611000 -10.678500 -2.904650 39.081100 -0.000007 -0.000012 -0.173124 0.265474 33.109900 40.985400 -0.000006 -0.000013 -0.034469 6.226540 -68.108800 11.754300 -0.000000 0.000003 -0.000058 -0.000641 -16.602400 -2.192510 6.469440 -0.000001 174.894000 19.464800 177.943000 -39.081100 -0.002282 -0.040193 -0.174507 0.271599 33.210800 -40.985400 0.000008 0.000006 4.262390 12.550500 -69.242200 -11.754300 -0.000006 -0.000006 -0.003678 -0.048046 -18.527400
